<?xml version="1.0" ?><!DOCTYPE svg  PUBLIC '-//W3C//DTD SVG 1.1//EN'  'http://www.w3.org/Graphics/SVG/1.1/DTD/svg11.dtd'><svg enable-background="new 0 0 841.89 595.28" height="595.28px" id="Layer_1" version="1.1" viewBox="0 0 841.89 595.28" width="841.89px" xml:space="preserve" xmlns="http://www.w3.org/2000/svg" xmlns:xlink="http://www.w3.org/1999/xlink"><g><path d="M715.664,296.722   c0,162.768-131.957,294.715-294.724,294.715c-162.767,0-294.714-131.947-294.714-294.715C126.226,133.95,258.173,2,420.94,2   C583.707,2,715.664,133.95,715.664,296.722z" fill="#FFFFFF" stroke="#C6C6C6" stroke-miterlimit="10" stroke-width="2"/><g><path d="M451.592,299.945c0-16.061-13.065-29.136-29.137-29.136c-16.061,0-29.136,13.075-29.136,29.136    c0,16.072,13.075,29.138,29.136,29.138C438.526,329.083,451.592,316.018,451.592,299.945z" fill="#C6C6C6"/><g><path d="M422.455,229.761c15.128,0,29.146,4.828,40.617,13h55.137h50.573v-20.586     c0-40.75-33.155-73.895-73.895-73.895H347.001c-40.749,0-73.895,33.146-73.895,73.895v20.586h108.732     C393.31,234.589,407.328,229.761,422.455,229.761z M483.02,193.188c0-4.516,3.692-8.211,8.212-8.211h25.366     c4.52,0,8.211,3.695,8.211,8.211v25.37c0,4.516-3.691,8.208-8.211,8.208h-25.366c-4.52,0-8.212-3.691-8.212-8.208V193.188z" fill="#C6C6C6"/><path d="M492.65,299.945c0,38.707-31.49,70.191-70.195,70.191c-38.705,0-70.185-31.484-70.185-70.191     c0-10.651,2.397-20.757,6.661-29.814h-85.824v101.136c0,40.749,33.146,73.896,73.895,73.896h147.886     c40.739,0,73.895-33.147,73.895-73.896V270.131H485.98C490.245,279.188,492.65,289.294,492.65,299.945z" fill="#C6C6C6"/></g></g></g></svg>