<svg width="500" height="500" xmlns="http://www.w3.org/2000/svg">

 <g>
  <title>background</title>
  <rect fill="none" id="canvas_background" height="502" width="502" y="-1" x="-1"/>
 </g>
 <g>
  <title>Layer 1</title>
  <path stroke="#C6C6C6" id="svg_2" stroke-width="2" stroke-miterlimit="10" fill="#FFFFFF" d="m493.777937,248.309884c0,133.008117 -109.322192,240.829753 -244.170417,240.829753c-134.847402,0 -244.162191,-107.822447 -244.162191,-240.829753c0,-133.00974 109.314789,-240.836244 244.162191,-240.836244c134.848225,0 244.170417,107.825693 244.170417,240.836244z"/>
  <path id="svg_4" fill="#cecece" d="m153.698672,196.134999l49.33,0l0,158.579l-49.33,0l0,-158.579zm24.678,-78.826c15.769,0 28.565,12.805 28.565,28.583c0,15.773 -12.796,28.573 -28.565,28.573c-15.831,0 -28.591,-12.8 -28.591,-28.573c-0.001,-15.778 12.76,-28.583 28.591,-28.583"/>
  <path id="svg_5" fill="#cecece" d="m233.944672,196.134999l47.245,0l0,21.679l0.674,0c6.576,-12.463 22.664,-25.605 46.641,-25.605c49.897,0 59.118,32.828 59.118,75.538l0,86.968l-49.269,0l0,-77.117c0,-18.391 -0.328,-42.053 -25.627,-42.053c-25.637,0 -29.551,20.05 -29.551,40.736l0,78.435l-49.231,0l0,-158.581z"/>
 </g>
</svg>