<?xml version="1.0" ?><!DOCTYPE svg  PUBLIC '-//W3C//DTD SVG 1.1//EN'  'http://www.w3.org/Graphics/SVG/1.1/DTD/svg11.dtd'><svg enable-background="new 0 0 841.89 595.28" height="595.28px" id="Layer_1" version="1.1" viewBox="0 0 841.89 595.28" width="841.89px" xml:space="preserve" xmlns="http://www.w3.org/2000/svg" xmlns:xlink="http://www.w3.org/1999/xlink"><g><path d="M720.819,297.241   c0,163.501-132.547,296.039-296.041,296.039c-163.495,0-296.041-132.538-296.041-296.039   c0-163.499,132.546-296.036,296.041-296.036C588.272,1.206,720.819,133.743,720.819,297.241z" fill="#FFFFFF" stroke="#C6C6C6" stroke-miterlimit="10" stroke-width="2"/><path d="M555.501,224.074c-9.288,4.122-19.271,6.908-29.74,8.156c10.691-6.408,18.913-16.55,22.771-28.645   c-9.992,5.934-21.071,10.248-32.873,12.571c-9.45-10.068-22.912-16.354-37.802-16.354c-28.595,0-51.782,23.187-51.782,51.779   c0,4.064,0.456,8.009,1.337,11.795c-43.033-2.153-81.182-22.765-106.727-54.104c-4.447,7.659-7,16.551-7,26.039   c0,17.96,9.137,33.82,23.023,43.095c-8.482-0.257-16.47-2.602-23.448-6.479v0.653c0,25.086,17.846,46.02,41.528,50.775   c-4.341,1.177-8.93,1.827-13.638,1.827c-3.336,0-6.584-0.337-9.749-0.943c6.589,20.57,25.709,35.54,48.365,35.969   c-17.713,13.877-40.033,22.165-64.309,22.165c-4.168,0-8.288-0.252-12.336-0.721c22.903,14.669,50.126,23.248,79.384,23.248   c95.234,0,147.309-78.887,147.309-147.316c0-2.239-0.054-4.472-0.137-6.708C539.774,243.582,548.54,234.467,555.501,224.074z" fill="#C6C6C6"/></g></svg>